<?xml version="1.0" encoding="UTF-8" standalone="no"?>
<svg
   viewBox="0 -150 4291 1000"
   version="1.1"
   id="svg10"
   sodipodi:docname="michelin-stars.svg"
   width="4291"
   height="1000"
   inkscape:version="1.1.2 (0a00cf5339, 2022-02-04)"
   xmlns:inkscape="http://www.inkscape.org/namespaces/inkscape"
   xmlns:sodipodi="http://sodipodi.sourceforge.net/DTD/sodipodi-0.dtd"
   xmlns="http://www.w3.org/2000/svg"
   xmlns:svg="http://www.w3.org/2000/svg">
  <sodipodi:namedview
     id="namedview12"
     pagecolor="#ffffff"
     bordercolor="#666666"
     borderopacity="1.0"
     inkscape:pageshadow="2"
     inkscape:pageopacity="0.0"
     inkscape:pagecheckerboard="0"
     showgrid="false"
     inkscape:zoom="0.16"
     inkscape:cx="2456.25"
     inkscape:cy="593.75"
     inkscape:window-width="1920"
     inkscape:window-height="1056"
     inkscape:window-x="0"
     inkscape:window-y="0"
     inkscape:window-maximized="1"
     inkscape:current-layer="svg10" />
  <defs
     id="defs4">
    <style
       id="style2">
            .michelinColor{fill:#D3072B;}
        </style>
  </defs>
  <path
     class="michelinColor"
     d="M 1749,69 V 20 q 0,-74 -47,-122 -47,-48 -119,-48 -78,0 -122,49 -44,49 -44,131 v 15 q 0,4 1,7 l 1,17 q -74,-53 -133,-53 -46,0 -88,31 -40,29 -59,76 -14,33 -14,66 0,101 116,154 l 15,7 q -131,60 -131,162 0,69 48,121 48,52 114,52 60,0 119,-43 l 13,-10 q -2,20 -2,48 0,75 47,122.5 47,47.5 119,47.5 79,0 122.5,-49.5 Q 1749,751 1749,671 v -39 q 74,53 132,53 65,0 112.5,-52.5 Q 2041,580 2041,512 2041,410 1925,357 l -15,-7 q 131,-60 131,-161 0,-65 -47,-119 Q 1947,16 1880.5,16 1814,16 1763,58 Z m -84,169 q 116,-169 215,-169 41,0 74.5,37 33.5,37 33.5,83 0,124 -268,147 v 29 q 133,11 200.5,48 67.5,37 67.5,99 0,45 -32.5,82.5 Q 1923,632 1880,632 1779,632 1665,462 l -26,15 q 57,116 57,196 0,124 -113,124 -54,0 -84,-33 -29,-35 -29,-88 0,-80 57,-199 l -26,-15 q -114,170 -215,170 -41,0 -74.5,-35.5 Q 1178,561 1178,512 q 0,-124 267,-147 v -29 q -267,-22 -267,-147 0,-44 32,-82 32,-38 76,-38 99,0 215,169 l 26,-14 q -57,-117 -57,-200 0,-53 29,-88 30,-33 84,-33 113,0 113,123 0,81 -57,198 z"
     id="path6" />
  <path
     class="michelinColor"
     d="M 3999,69 V 20 q 0,-74 -47,-122 -47,-48 -119,-48 -78,0 -122,49 -44,49 -44,131 v 15 q 0,4 1,7 l 1,17 q -74,-53 -133,-53 -46,0 -88,31 -40,29 -59,76 -14,33 -14,66 0,101 116,154 l 15,7 q -131,60 -131,162 0,69 48,121 48,52 114,52 60,0 119,-43 l 13,-10 q -2,20 -2,48 0,75 47,122.5 47,47.5 119,47.5 79,0 122.5,-49.5 Q 3999,751 3999,671 v -39 q 74,53 132,53 65,0 112.5,-52.5 Q 4291,580 4291,512 4291,410 4175,357 l -15,-7 q 131,-60 131,-161 0,-65 -47,-119 Q 4197,16 4130.5,16 4064,16 4013,58 Z m -84,169 q 116,-169 215,-169 41,0 74.5,37 33.5,37 33.5,83 0,124 -268,147 v 29 q 133,11 200.5,48 67.5,37 67.5,99 0,45 -32.5,82.5 Q 4173,632 4130,632 4029,632 3915,462 l -26,15 q 57,116 57,196 0,124 -113,124 -54,0 -84,-33 -29,-35 -29,-88 0,-80 57,-199 l -26,-15 q -114,170 -215,170 -41,0 -74.5,-35.5 Q 3428,561 3428,512 q 0,-124 267,-147 v -29 q -267,-22 -267,-147 0,-44 32,-82 32,-38 76,-38 99,0 215,169 l 26,-14 q -57,-117 -57,-200 0,-53 29,-88 30,-33 84,-33 113,0 113,123 0,81 -57,198 z"
     id="path8" />
  <path
     class="michelinColor"
     d="M 623.9999,69 V 20 q 0,-74 -47,-122 -47,-48 -119,-48 -78,0 -122,49 -44,49 -44,131 v 15 q 0,4 1,7 l 1,17 q -74,-53 -133,-53 Q 115,16 73,47 33,76 14,123 0,156 0,189 0,290 116,343 l 14.9999,7 Q 0,410 0,512 q 0,69 48,121 48,52 113.9999,52 60,0 119,-43 l 13,-10 q -2,20 -2,48 0,75 47,122.5 47,47.5 119,47.5 79,0 122.5,-49.5 43.5,-49.5 43.5,-129.5 v -39 q 74,53 132,53 Q 821,685 868.5,632.5 916,580 916,512 916,410 799.9999,357 l -15,-7 Q 916,290 916,189 916,124 869,70 822,16 755.4999,16 q -66.5,0 -117.5,42 z m -84,169 q 116,-169 215,-169 41,0 74.5001,37 33.5,37 33.5,83 0,124 -268.0001,147 v 29 q 133,11 200.5,48 Q 863,450 863,512 q 0,45 -32.5,82.5 -32.5001,37.5 -75.5001,37.5 -101,0 -215,-170 l -26,15 q 57,116 57,196 0,124 -113,124 -54,0 -84,-33 -29,-35 -29,-88 0,-80 57,-199 l -26,-15 q -114,170 -215,170 Q 120,632 86.5,596.5 53,561 53,512 53,388 319.9999,365 V 336 Q 53,314 53,189 q 0,-44 32,-82 32,-38 75.9999,-38 99,0 215,169 l 26,-14 q -57,-117 -57,-200 0,-53 29,-88 30,-33 84,-33 113,0 113,123 0,81 -57,198 z"
     id="path6-7"
     style="fill:#d3072b" />
  <path
     class="michelinColor"
     d="M 2874,69 V 20 q 0,-74 -47,-122 -47,-48 -119,-48 -78,0 -122,49 -44,49 -44,131 v 15 q 0,4 1,7 l 1,17 q -74,-53 -133,-53 -46,0 -88.0001,31 -40,29 -59,76 -14,33 -14,66 0,101 116.0001,154 l 15,7 q -131.0001,60 -131.0001,162 0,69 48,121 48,52 114.0001,52 60,0 119,-43 l 13,-10 q -2,20 -2,48 0,75 47,122.5 47,47.5 119,47.5 79,0 122.5,-49.5 Q 2874,751 2874,671 v -39 q 74,53 132,53 65,0 112.5,-52.5 Q 3166,580 3166,512 3166,410 3050,357 l -15,-7 q 131,-60 131,-161 0,-65 -47,-119 Q 3072,16 3005.5,16 2939,16 2888,58 Z m -84,169 q 116,-169 215,-169 41,0 74.5,37 33.5,37 33.5,83 0,124 -268,147 v 29 q 133,11 200.5,48 67.5,37 67.5,99 0,45 -32.5,82.5 Q 3048,632 3005,632 2904,632 2790,462 l -26,15 q 57,116 57,196 0,124 -113,124 -54,0 -84,-33 -29,-35 -29,-88 0,-80 57,-199 l -26,-15 q -114,170 -215,170 -41,0 -74.5001,-35.5 -33.5,-35.5 -33.5,-84.5 0,-124 267.0001,-147 v -29 q -267.0001,-22 -267.0001,-147 0,-44 32,-82 Q 2367,69 2411,69 q 99,0 215,169 l 26,-14 q -57,-117 -57,-200 0,-53 29,-88 30,-33 84,-33 113,0 113,123 0,81 -57,198 z"
     id="path8-5"
     style="fill:#d3072b" />
</svg>
